<svg version="1.1" viewBox="0.0 0.0 960.0 720.0" fill="none" stroke="none" stroke-linecap="square" stroke-miterlimit="10" xmlns:xlink="http://www.w3.org/1999/xlink" xmlns="http://www.w3.org/2000/svg"><clipPath id="p.0"><path d="m0 0l960.0 0l0 720.0l-960.0 0l0 -720.0z" clip-rule="nonzero"/></clipPath><g clip-path="url(#p.0)"><path fill="#000000" fill-opacity="0.0" d="m0 0l960.0 0l0 720.0l-960.0 0z" fill-rule="evenodd"/><path fill="#000000" d="m95.66929 211.40352l0 0c0 -53.736496 43.562035 -97.29853 97.29853 -97.29853l574.06433 0c25.805176 0 50.553467 10.251068 68.800476 28.498085c18.24701 18.24701 28.498047 42.99527 28.498047 68.800446l0 389.1825c0 53.73645 -43.56201 97.29852 -97.29852 97.29852l-574.06433 0l0 0c-53.736496 0 -97.29853 -43.562073 -97.29853 -97.29852z" fill-rule="evenodd"/><path stroke="#ffffff" stroke-width="8.0" stroke-linejoin="round" stroke-linecap="butt" d="m95.66929 211.40352l0 0c0 -53.736496 43.562035 -97.29853 97.29853 -97.29853l574.06433 0c25.805176 0 50.553467 10.251068 68.800476 28.498085c18.24701 18.24701 28.498047 42.99527 28.498047 68.800446l0 389.1825c0 53.73645 -43.56201 97.29852 -97.29852 97.29852l-574.06433 0l0 0c-53.736496 0 -97.29853 -43.562073 -97.29853 -97.29852z" fill-rule="evenodd"/><path fill="#000000" d="m304.86615 85.94802l0 0c0 -14.249519 11.551514 -25.80104 25.801025 -25.80104l298.66565 0c6.8428345 0 13.405457 2.718319 18.24408 7.5569534c4.838623 4.8386307 7.556946 11.40123 7.556946 18.244087l0 103.20107c0 14.249512 -11.551514 25.80104 -25.801025 25.80104l-298.66565 0c-14.249512 0 -25.801025 -11.551529 -25.801025 -25.80104z" fill-rule="evenodd"/><path stroke="#ffffff" stroke-width="12.0" stroke-linejoin="round" stroke-linecap="butt" d="m304.86615 85.94802l0 0c0 -14.249519 11.551514 -25.80104 25.801025 -25.80104l298.66565 0c6.8428345 0 13.405457 2.718319 18.24408 7.5569534c4.838623 4.8386307 7.556946 11.40123 7.556946 18.244087l0 103.20107c0 14.249512 -11.551514 25.80104 -25.801025 25.80104l-298.66565 0c-14.249512 0 -25.801025 -11.551529 -25.801025 -25.80104z" fill-rule="evenodd"/><path fill="#000000" fill-opacity="0.0" d="m315.1811 439.6063l0 0c0 -91.105225 73.79193 -164.96063 164.81891 -164.96063l0 0c43.712708 0 85.63501 17.37973 116.544556 48.315857c30.909546 30.936127 48.274353 72.8945 48.274353 116.644775l0 0c0 91.105255 -73.79193 164.96066 -164.81891 164.96066l0 0c-91.02698 0 -164.81891 -73.85541 -164.81891 -164.96066zm82.409454 0l0 0c0 45.591766 36.895966 82.55118 82.409454 82.55118c45.51349 0 82.409424 -36.95941 82.409424 -82.55118c0 -45.591766 -36.895935 -82.55118 -82.409424 -82.55118l0 0c-45.51349 0 -82.409454 36.95941 -82.409454 82.55118z" fill-rule="evenodd"/><path stroke="#ffffff" stroke-width="8.0" stroke-linejoin="round" stroke-linecap="butt" d="m315.1811 439.6063l0 0c0 -91.105225 73.79193 -164.96063 164.81891 -164.96063l0 0c43.712708 0 85.63501 17.37973 116.544556 48.315857c30.909546 30.936127 48.274353 72.8945 48.274353 116.644775l0 0c0 91.105255 -73.79193 164.96066 -164.81891 164.96066l0 0c-91.02698 0 -164.81891 -73.85541 -164.81891 -164.96066zm82.409454 0l0 0c0 45.591766 36.895966 82.55118 82.409454 82.55118c45.51349 0 82.409424 -36.95941 82.409424 -82.55118c0 -45.591766 -36.895935 -82.55118 -82.409424 -82.55118l0 0c-45.51349 0 -82.409454 36.95941 -82.409454 82.55118z" fill-rule="evenodd"/></g></svg>