<svg version="1.1" viewBox="0.0 0.0 960.0 720.0" fill="none" stroke="none" stroke-linecap="square" stroke-miterlimit="10" xmlns:xlink="http://www.w3.org/1999/xlink" xmlns="http://www.w3.org/2000/svg"><clipPath id="p.0"><path d="m0 0l960.0 0l0 720.0l-960.0 0l0 -720.0z" clip-rule="nonzero"/></clipPath><g clip-path="url(#p.0)"><path fill="#000000" fill-opacity="0.0" d="m0 0l960.0 0l0 720.0l-960.0 0z" fill-rule="evenodd"/><path fill="#ff0000" d="m840.0 360.0l-145.27496 44.15103l0 -88.30206zm-105.466675 -217.55093l-66.17468 119.01907l-73.06183 -62.43814zm-254.53333 -90.10261l51.663208 124.15099l-103.326416 0zm-254.56667 90.10261l139.26985 56.580933l-73.06183 62.43814zm-105.433334 217.55093l145.27496 -44.15103l0 88.30206zm105.433334 217.52246l66.20802 -118.9906l73.06183 62.43817zm254.56667 90.1311l-51.663208 -124.151l103.326416 0zm254.53333 -90.1311l-139.23651 -56.55243l73.06183 -62.43817zm-434.53333 -217.52246c0 -84.95618 80.588745 -153.82677 180.0 -153.82677c99.411255 0 180.0 68.87059 180.0 153.82677c0 84.95618 -80.588745 153.82678 -180.0 153.82678c-99.411255 0 -180.0 -68.870605 -180.0 -153.82678z" fill-rule="evenodd"/><path stroke="#ffe599" stroke-width="1.0" stroke-linejoin="round" stroke-linecap="butt" d="m840.0 360.0l-145.27496 44.15103l0 -88.30206zm-105.466675 -217.55093l-66.17468 119.01907l-73.06183 -62.43814zm-254.53333 -90.10261l51.663208 124.15099l-103.326416 0zm-254.56667 90.10261l139.26985 56.580933l-73.06183 62.43814zm-105.433334 217.55093l145.27496 -44.15103l0 88.30206zm105.433334 217.52246l66.20802 -118.9906l73.06183 62.43817zm254.56667 90.1311l-51.663208 -124.151l103.326416 0zm254.53333 -90.1311l-139.23651 -56.55243l73.06183 -62.43817zm-434.53333 -217.52246c0 -84.95618 80.588745 -153.82677 180.0 -153.82677c99.411255 0 180.0 68.87059 180.0 153.82677c0 84.95618 -80.588745 153.82678 -180.0 153.82678c-99.411255 0 -180.0 -68.870605 -180.0 -153.82678z" fill-rule="evenodd"/><path fill="#ffd966" d="m309.62787 359.9979l0 0c0 -86.12164 76.27377 -155.93701 170.36221 -155.93701l0 0c94.08847 0 170.36221 69.81537 170.36221 155.93701l0 0c0 86.12164 -76.27374 155.93698 -170.36221 155.93698l0 0c-94.08844 0 -170.36221 -69.81534 -170.36221 -155.93698z" fill-rule="evenodd"/><path stroke="#e69138" stroke-width="12.0" stroke-linejoin="round" stroke-linecap="butt" d="m309.62787 359.9979l0 0c0 -86.12164 76.27377 -155.93701 170.36221 -155.93701l0 0c94.08847 0 170.36221 69.81537 170.36221 155.93701l0 0c0 86.12164 -76.27374 155.93698 -170.36221 155.93698l0 0c-94.08844 0 -170.36221 -69.81534 -170.36221 -155.93698z" fill-rule="evenodd"/></g></svg>