<svg version="1.1" viewBox="0.0 0.0 960.0 720.0" fill="none" stroke="none" stroke-linecap="square" stroke-miterlimit="10" xmlns:xlink="http://www.w3.org/1999/xlink" xmlns="http://www.w3.org/2000/svg"><clipPath id="p.0"><path d="m0 0l960.0 0l0 720.0l-960.0 0l0 -720.0z" clip-rule="nonzero"/></clipPath><g clip-path="url(#p.0)"><path fill="#000000" fill-opacity="0.0" d="m0 0l960.0 0l0 720.0l-960.0 0z" fill-rule="evenodd"/><path fill="#000000" fill-opacity="0.0" d="m230.77165 39.622047l498.45667 0l0 640.75586l-498.45667 0z" fill-rule="evenodd"/><path stroke="#000000" stroke-width="12.0" stroke-linejoin="round" stroke-linecap="butt" d="m230.77165 39.622047l498.45667 0l0 640.75586l-498.45667 0z" fill-rule="evenodd"/><path fill="#000000" fill-opacity="0.0" d="m268.4882 380.0525l361.76376 -0.94488525" fill-rule="evenodd"/><path stroke="#000000" stroke-width="24.0" stroke-linejoin="round" stroke-linecap="butt" d="m268.4882 380.0525l361.76376 -0.94488525" fill-rule="evenodd"/><path fill="#000000" fill-opacity="0.0" d="m268.4882 497.15616l361.76376 -0.72439575" fill-rule="evenodd"/><path stroke="#000000" stroke-width="24.0" stroke-linejoin="round" stroke-linecap="butt" d="m268.4882 497.15616l361.76376 -0.72439575" fill-rule="evenodd"/><path fill="#000000" fill-opacity="0.0" d="m268.4882 608.76117l334.04727 0.4724121" fill-rule="evenodd"/><path stroke="#000000" stroke-width="24.0" stroke-linejoin="round" stroke-linecap="butt" d="m268.4882 608.76117l334.04727 0.4724121" fill-rule="evenodd"/><path fill="#000000" fill-opacity="0.0" d="m540.47766 289.33597l151.02368 -0.94488525" fill-rule="evenodd"/><path stroke="#000000" stroke-width="24.0" stroke-linejoin="round" stroke-linecap="butt" d="m540.47766 289.33597l151.02368 -0.94488525" fill-rule="evenodd"/><path fill="#000000" fill-opacity="0.0" d="m540.47766 199.3412l151.02368 -0.94487" fill-rule="evenodd"/><path stroke="#000000" stroke-width="24.0" stroke-linejoin="round" stroke-linecap="butt" d="m540.47766 199.3412l151.02368 -0.94487" fill-rule="evenodd"/><path fill="#000000" fill-opacity="0.0" d="m540.47766 109.34646l151.02368 -0.94488525" fill-rule="evenodd"/><path stroke="#000000" stroke-width="24.0" stroke-linejoin="round" stroke-linecap="butt" d="m540.47766 109.34646l151.02368 -0.94488525" fill-rule="evenodd"/><path fill="#000000" d="m281.69815 197.67455l0 0c0 -50.105713 44.39081 -90.72441 99.14963 -90.72441c54.75882 0 99.1496 40.6187 99.1496 90.72441c0 50.105698 -44.390778 90.72441 -99.1496 90.72441c-54.75882 0 -99.14963 -40.618713 -99.14963 -90.72441z" fill-rule="evenodd"/><path fill="#000000" d="m338.7551 170.54123c0 -5.219345 4.6240234 -9.45047 10.328064 -9.45047c5.704071 0 10.3280945 4.231125 10.3280945 9.45047c0 5.21933 -4.6240234 9.450455 -10.3280945 9.450455c-5.7040405 0 -10.328064 -4.231125 -10.328064 -9.450455m63.529175 0c0 -5.219345 4.624054 -9.45047 10.3280945 -9.45047c5.7040405 0 10.3280945 4.231125 10.3280945 9.45047c0 5.21933 -4.624054 9.450455 -10.3280945 9.450455c-5.7040405 0 -10.3280945 -4.231125 -10.3280945 -9.450455" fill-rule="evenodd"/><path fill="#000000" fill-opacity="0.0" d="m327.10803 237.24007q53.739746 33.771255 107.35397 0" fill-rule="evenodd"/><path fill="#000000" fill-opacity="0.0" d="m281.69815 197.67455l0 0c0 -50.105713 44.39081 -90.72441 99.14963 -90.72441c54.75882 0 99.1496 40.6187 99.1496 90.72441c0 50.105698 -44.390778 90.72441 -99.1496 90.72441c-54.75882 0 -99.14963 -40.618713 -99.14963 -90.72441z" fill-rule="evenodd"/><path stroke="#ffffff" stroke-width="1.0" stroke-linejoin="round" stroke-linecap="butt" d="m338.7551 170.54123c0 -5.219345 4.6240234 -9.45047 10.328064 -9.45047c5.704071 0 10.3280945 4.231125 10.3280945 9.45047c0 5.21933 -4.6240234 9.450455 -10.3280945 9.450455c-5.7040405 0 -10.328064 -4.231125 -10.328064 -9.450455m63.529175 0c0 -5.219345 4.624054 -9.45047 10.3280945 -9.45047c5.7040405 0 10.3280945 4.231125 10.3280945 9.45047c0 5.21933 -4.624054 9.450455 -10.3280945 9.450455c-5.7040405 0 -10.3280945 -4.231125 -10.3280945 -9.450455" fill-rule="evenodd"/><path stroke="#ffffff" stroke-width="1.0" stroke-linejoin="round" stroke-linecap="butt" d="m327.10803 237.24007q53.739746 33.771255 107.35397 0" fill-rule="evenodd"/><path stroke="#ffffff" stroke-width="1.0" stroke-linejoin="round" stroke-linecap="butt" d="m281.69815 197.67455l0 0c0 -50.105713 44.39081 -90.72441 99.14963 -90.72441c54.75882 0 99.1496 40.6187 99.1496 90.72441c0 50.105698 -44.390778 90.72441 -99.1496 90.72441c-54.75882 0 -99.14963 -40.618713 -99.14963 -90.72441z" fill-rule="evenodd"/><path fill="#000000" fill-opacity="0.0" d="m616.8688 566.0236l56.338562 0l0 -187.63779l112.677185 0l0 187.63779l56.338562 0l-112.677124 112.677185z" fill-rule="evenodd"/><path stroke="#000000" stroke-width="24.0" stroke-linejoin="round" stroke-linecap="butt" d="m616.8688 566.0236l56.338562 0l0 -187.63779l112.677185 0l0 187.63779l56.338562 0l-112.677124 112.677185z" fill-rule="evenodd"/></g></svg>