<svg version="1.1" viewBox="0.0 0.0 960.0 720.0" fill="none" stroke="none" stroke-linecap="square" stroke-miterlimit="10" xmlns:xlink="http://www.w3.org/1999/xlink" xmlns="http://www.w3.org/2000/svg"><clipPath id="p.0"><path d="m0 0l960.0 0l0 720.0l-960.0 0l0 -720.0z" clip-rule="nonzero"/></clipPath><g clip-path="url(#p.0)"><path fill="#000000" fill-opacity="0.0" d="m0 0l960.0 0l0 720.0l-960.0 0z" fill-rule="evenodd"/><path fill="#ffffff" d="m291.70078 103.55905l376.59842 0l0 512.88184l-376.59842 0z" fill-rule="evenodd"/><path stroke="#000000" stroke-width="12.0" stroke-linejoin="round" stroke-linecap="butt" d="m291.70078 103.55905l376.59842 0l0 512.88184l-376.59842 0z" fill-rule="evenodd"/><path fill="#000000" d="m523.7156 291.42062q0 5.046875 -2.109375 7.5625q-2.09375 2.515625 -6.796875 2.515625q-0.328125 3.53125 -1.515625 12.265625q-1.671875 11.765625 -1.84375 13.109375q-14.953125 111.375 -62.328125 111.375q-13.9375 0 -21.75 -7.890625q-7.8125 -7.890625 -7.8125 -19.828125q0 -21.328125 18.140625 -37.703125q18.140625 -16.390625 47.71875 -27.140625q1.84375 -11.921875 2.84375 -21.328125l3.03125 -25.375q-10.078125 -1.0 -18.8125 -1.0q-23.359375 0 -34.453125 4.53125q-11.078125 4.53125 -11.078125 14.78125q0 5.046875 3.359375 10.921875q1.0 1.671875 1.0 3.53125q0 3.515625 -3.609375 6.296875q-3.609375 2.765625 -7.8125 2.765625q-5.375 0 -8.234375 -4.53125q-4.703125 -7.734375 -4.703125 -17.96875q0 -40.328125 70.5625 -40.328125q20.5 0 36.625 4.03125q9.578125 2.359375 9.578125 9.40625zm-72.40625 128.85938q8.234375 0 16.453125 -12.421875q8.234375 -12.4375 14.453125 -43.515625q-40.984375 17.96875 -40.984375 44.015625q0 5.703125 2.6875 8.8125q2.6875 3.109375 7.390625 3.109375z" fill-rule="nonzero"/><path fill="#000000" d="m525.0552 420.405q-1.40625 0 -2.40625 -0.703125q-1.0 -0.71875 -1.5 -1.859375q-0.5 -1.15625 -0.5 -2.484375q0 -1.828125 0.671875 -3.25q0.6875 -1.421875 1.859375 -2.21875q1.1875 -0.8125 2.640625 -0.8125q1.421875 0 2.421875 0.703125q1.015625 0.703125 1.515625 1.859375q0.515625 1.15625 0.515625 2.46875q0 1.828125 -0.703125 3.265625q-0.6875 1.421875 -1.890625 2.234375q-1.1875 0.796875 -2.625 0.796875zm0.265625 -2.59375q0.8125 0 1.375 -0.890625q0.578125 -0.890625 0.578125 -2.59375q0 -1.3125 -0.484375 -1.984375q-0.484375 -0.671875 -1.15625 -0.671875q-0.859375 0 -1.421875 0.875q-0.5625 0.875 -0.5625 2.59375q0 1.375 0.46875 2.03125q0.484375 0.640625 1.203125 0.640625zm16.762573 -0.03125q0.984375 0.203125 0.984375 1.078125q0 0.609375 -0.546875 1.078125q-0.546875 0.46875 -1.546875 0.46875q-1.734375 0 -2.828125 -1.0625q-1.078125 -1.078125 -1.078125 -2.8125q0 -0.9375 0.953125 -1.34375q1.0625 -0.453125 1.515625 -0.96875q0.453125 -0.515625 0.453125 -1.25q0 -0.4375 -0.1875 -0.65625q-0.171875 -0.21875 -0.4375 -0.21875q-0.65625 0 -1.4375 0.9375q-0.765625 0.9375 -1.4375 2.421875q-0.671875 1.46875 -1.0625 3.03125q-0.265625 1.125 -0.609375 1.53125q-0.34375 0.390625 -1.09375 0.390625q-0.75 0 -1.09375 -0.53125q-0.34375 -0.546875 -0.46875 -1.671875q-0.125 -1.140625 -0.125 -3.328125q0 -3.6875 0.75 -7.6875q0.765625 -4.015625 2.234375 -6.734375q1.484375 -2.734375 3.546875 -2.734375q1.109375 0 1.78125 0.953125q0.6875 0.953125 0.6875 2.453125q0 2.421875 -1.421875 5.03125q-1.40625 2.609375 -4.59375 6.078125q-0.078125 1.25 -0.078125 2.578125q1.15625 -3.0 2.640625 -4.359375q1.5 -1.359375 2.78125 -1.359375q1.203125 0 1.9375 0.828125q0.734375 0.8125 0.734375 2.0q0 1.328125 -0.671875 2.4375q-0.671875 1.09375 -2.296875 1.96875q0.140625 0.71875 0.578125 1.0q0.453125 0.265625 1.4375 0.453125zm-4.015625 -17.6875q-0.4375 0 -0.96875 1.234375q-0.515625 1.234375 -1.015625 3.34375q-0.484375 2.09375 -0.796875 4.5625q1.484375 -1.75 2.453125 -3.8125q0.96875 -2.0625 0.96875 -3.734375q0 -0.78125 -0.171875 -1.1875q-0.15625 -0.40625 -0.46875 -0.40625zm14.910278 15.5625q0.3125 0 0.484375 0.28125q0.1875 0.28125 0.1875 0.796875q0 0.859375 -0.40625 1.484375q-0.671875 1.03125 -1.765625 1.609375q-1.09375 0.578125 -2.609375 0.578125q-2.296936 0 -3.578186 -1.375q-1.265625 -1.390625 -1.265625 -3.734375q0 -1.65625 0.6875 -3.078125q0.703125 -1.4375 1.9375 -2.28125q1.234436 -0.84375 2.796936 -0.84375q1.390625 0 2.21875 0.828125q0.84375 0.828125 0.84375 2.25q0 1.65625 -1.1875 2.84375q-1.1875 1.1875 -4.031311 1.875q0.56256104 1.109375 1.937561 1.109375q0.984375 0 1.609375 -0.453125q0.640625 -0.453125 1.484375 -1.53125q0.296875 -0.359375 0.65625 -0.359375zm-3.9375 -4.203125q-0.890625 0 -1.500061 1.03125q-0.609375 1.03125 -0.609375 2.5l0 0.046875q1.406311 -0.34375 2.218811 -1.015625q0.828125 -0.671875 0.828125 -1.5625q0 -0.453125 -0.265625 -0.71875q-0.25 -0.28125 -0.671875 -0.28125zm14.895203 0.9375q0.53125 0 0.90625 0.375q0.375 0.359375 0.375 0.921875q0 0.3125 -0.15625 0.671875q-0.375 0.875 -1.078125 1.484375q-0.6875 0.59375 -1.53125 0.59375q-0.671875 0 -1.140625 -0.46875q-0.46875 -0.484375 -0.46875 -1.296875q0 -0.46875 0.046875 -0.984375q0.046875 -0.390625 0.046875 -0.53125q0 -0.1875 -0.078125 -0.28125q-0.078125 -0.109375 -0.203125 -0.109375q-0.34375 0 -0.921875 0.8125q-0.5625 0.796875 -1.140625 2.125q-0.578125 1.3125 -0.9375 2.78125q-0.265625 1.15625 -0.609375 1.546875q-0.328125 0.375 -1.09375 0.375q-0.921875 0 -1.296875 -0.953125q-0.359375 -0.96875 -0.359375 -3.078125q0 -3.125 0.890625 -5.9375q0.203125 -0.6875 0.6875 -1.015625q0.5 -0.328125 1.390625 -0.328125q0.484375 0 0.671875 0.125q0.203125 0.125 0.203125 0.453125q0 0.390625 -0.359375 1.734375q-0.25 0.953125 -0.390625 1.671875q-0.140625 0.71875 -0.234375 1.78125q0.78125 -2.0625 1.765625 -3.359375q0.984375 -1.296875 1.921875 -1.84375q0.9375 -0.5625 1.703125 -0.5625q0.703125 0 1.0625 0.40625q0.375 0.390625 0.375 1.15625q0 0.453125 -0.265625 1.734375l0.21875 0z" fill-rule="nonzero"/></g></svg>