<svg version="1.1" viewBox="0.0 0.0 665.7454068241469 645.3097112860893" fill="none" stroke="none" stroke-linecap="square" stroke-miterlimit="10" xmlns:xlink="http://www.w3.org/1999/xlink" xmlns="http://www.w3.org/2000/svg"><clipPath id="p.0"><path d="m0 0l665.7454 0l0 645.3097l-665.7454 0l0 -645.3097z" clip-rule="nonzero"/></clipPath><g clip-path="url(#p.0)"><path fill="#000000" fill-opacity="0.0" d="m0 0l665.7454 0l0 645.3097l-665.7454 0z" fill-rule="evenodd"/><g filter="url(#shadowFilter-p.1)"><use xlink:href="#p.1" transform="matrix(1.0 0.0 0.0 1.0 7.872708538385827 9.05651503034777)"/></g><defs><filter id="shadowFilter-p.1" filterUnits="userSpaceOnUse"><feGaussianBlur in="SourceAlpha" stdDeviation="4.0" result="blur"/><feComponentTransfer in="blur" color-interpolation-filters="sRGB"><feFuncR type="linear" slope="0" intercept="0.2627451"/><feFuncG type="linear" slope="0" intercept="0.2627451"/><feFuncB type="linear" slope="0" intercept="0.2627451"/><feFuncA type="linear" slope="0.5" intercept="0"/></feComponentTransfer></filter></defs><g id="p.1"><path fill="#000000" d="m45.849083 322.65353l0 0c0 -161.93684 128.50485 -293.2126 287.02362 -293.2126l0 0c76.12338 0 149.12897 30.891953 202.95633 85.879974c53.827393 54.988037 84.06726 129.56781 84.06726 207.33261l0 0c0 161.93686 -128.50482 293.21262 -287.0236 293.21262l0 0c-158.51878 0 -287.02362 -131.27576 -287.02362 -293.21262z" fill-rule="evenodd"/><path stroke="#ffd966" stroke-width="16.0" stroke-linejoin="round" stroke-linecap="butt" d="m45.849083 322.65353l0 0c0 -161.93684 128.50485 -293.2126 287.02362 -293.2126l0 0c76.12338 0 149.12897 30.891953 202.95633 85.879974c53.827393 54.988037 84.06726 129.56781 84.06726 207.33261l0 0c0 161.93686 -128.50482 293.21262 -287.0236 293.21262l0 0c-158.51878 0 -287.02362 -131.27576 -287.02362 -293.21262z" fill-rule="evenodd"/></g><g filter="url(#shadowFilter-p.2)"><use xlink:href="#p.2" transform="matrix(1.0 0.0 0.0 1.0 7.872708538385827 9.05651503034777)"/></g><defs><filter id="shadowFilter-p.2" filterUnits="userSpaceOnUse"><feGaussianBlur in="SourceAlpha" stdDeviation="4.0" result="blur"/><feComponentTransfer in="blur" color-interpolation-filters="sRGB"><feFuncR type="linear" slope="0" intercept="1.0"/><feFuncG type="linear" slope="0" intercept="0.9490196"/><feFuncB type="linear" slope="0" intercept="0.8"/><feFuncA type="linear" slope="0.5" intercept="0"/></feComponentTransfer></filter></defs><g id="p.2"><path fill="#000000" fill-opacity="0.0" d="m120.58924 163.8819l424.56696 0l0 317.5433l-424.56696 0z" fill-rule="evenodd"/><path fill="#c9daf8" d="m328.31644 219.20377q0 7.203125 -3.0 10.796875q-3.0 3.59375 -9.71875 3.59375q-0.484375 5.046875 -2.171875 17.53125q-2.390625 16.796875 -2.640625 18.71875q-21.359375 159.125 -89.03125 159.125q-19.921875 0 -31.078125 -11.28125q-11.15625 -11.28125 -11.15625 -28.328125q0 -30.484375 25.90625 -53.875q25.921875 -23.40625 68.171875 -38.765625q2.640625 -17.03125 4.078125 -30.484375l4.3125 -36.234375q-14.390625 -1.4375 -26.875 -1.4375q-33.359375 0 -49.203125 6.484375q-15.84375 6.46875 -15.84375 21.109375q0 7.203125 4.8125 15.609375q1.4375 2.390625 1.4375 5.03125q0 5.046875 -5.171875 9.015625q-5.15625 3.953125 -11.15625 3.953125q-7.671875 0 -11.75 -6.484375q-6.71875 -11.046875 -6.71875 -25.6875q0 -57.59375 100.796875 -57.59375q29.28125 0 52.3125 5.765625q13.6875 3.359375 13.6875 13.4375zm-103.4375 184.07812q11.75 0 23.515625 -17.75q11.765625 -17.765625 20.640625 -62.171875q-58.5625 25.6875 -58.5625 62.875q0 8.171875 3.84375 12.609375q3.84375 4.4375 10.5625 4.4375zm306.2263 -153.59375q0 20.390625 -14.40625 35.15625q-14.3906555 14.75 -41.984406 21.234375q14.875 4.078125 22.546875 13.328125q7.6875 9.234375 7.6875 21.234375q0 18.953125 -11.875 32.875q-11.875 13.921875 -34.6875 21.484375q-22.796875 7.5625 -54.953125 7.5625q-12.0 0 -19.203125 -0.71875q-0.234375 6.71875 -5.765625 10.078125q-5.515625 3.359375 -14.15625 3.359375q-8.640625 0 -11.875 -3.84375q-3.234375 -3.84375 -2.765625 -11.28125q2.171875 -33.59375 8.40625 -70.4375q6.234375 -36.84375 15.84375 -71.15625q1.671875 -6.0 6.703125 -8.390625q5.046875 -2.40625 13.21875 -2.40625q14.640625 0 14.640625 8.15625q0 3.359375 -1.453125 7.671875q-6.234375 18.734375 -12.484375 50.78125q-6.234375 32.03125 -8.875 61.0625q11.53125 0.96875 18.71875 0.96875q33.609375 0 49.328125 -9.71875q15.71875 -9.71875 15.71875 -24.84375q0 -10.5625 -9.0 -17.765625q-9.0 -7.203125 -30.125 -7.921875q-4.796875 -0.234375 -6.71875 -2.390625q-1.921875 -2.171875 -1.921875 -6.96875q0 -6.953125 2.875 -11.265625q2.890625 -4.328125 10.5625 -4.5625q17.046875 -0.484375 30.84375 -5.046875q13.796875 -4.5625 21.71875 -12.84375q7.921875 -8.28125 7.921875 -19.3125q0 -13.921875 -13.6875 -21.953125q-13.671875 -8.046875 -41.984375 -8.046875q-25.6875 0 -49.6875 6.609375q-24.0 6.59375 -40.796875 16.671875q-7.6875 4.546875 -12.953125 4.546875q-4.328125 0 -6.609375 -3.0q-2.28125 -3.0 -2.28125 -7.546875q0 -6.0 2.515625 -10.3125q2.53125 -4.328125 12.125 -9.859375q20.15625 -11.515625 47.28125 -17.984375q27.125 -6.484375 55.4375 -6.484375q43.4375 0 64.796875 14.640625q21.359406 14.640625 21.359406 38.640625z" fill-rule="nonzero"/></g></g></svg>