<svg version="1.1" viewBox="0.0 0.0 960.0 720.0" fill="none" stroke="none" stroke-linecap="square" stroke-miterlimit="10" xmlns:xlink="http://www.w3.org/1999/xlink" xmlns="http://www.w3.org/2000/svg"><clipPath id="p.0"><path d="m0 0l960.0 0l0 720.0l-960.0 0l0 -720.0z" clip-rule="nonzero"/></clipPath><g clip-path="url(#p.0)"><path fill="#000000" fill-opacity="0.0" d="m0 0l960.0 0l0 720.0l-960.0 0z" fill-rule="evenodd"/><path fill="#ff0000" d="m773.1732 334.59055l-145.27496 44.15103l0 -88.30206zm-105.466675 -217.55093l-66.17468 119.01907l-73.06183 -62.43814zm-254.53333 -90.1026l51.663208 124.150986l-103.326416 0zm-254.56665 90.1026l139.26987 56.580933l-73.061844 62.43814zm-105.433334 217.55093l145.27496 -44.15103l0 88.30206zm105.433334 217.52243l66.20802 -118.99057l73.061844 62.43814zm254.56665 90.1311l-51.663208 -124.151l103.326416 0zm254.53333 -90.1311l-139.23651 -56.55243l73.06183 -62.43814zm-434.53333 -217.52243c0 -84.95618 80.58873 -153.82677 179.99998 -153.82677c99.411255 0 180.0 68.87059 180.0 153.82677c0 84.95618 -80.588745 153.82678 -180.0 153.82678c-99.411255 0 -179.99998 -68.870605 -179.99998 -153.82678z" fill-rule="evenodd"/><path stroke="#ffe599" stroke-width="1.0" stroke-linejoin="round" stroke-linecap="butt" d="m773.1732 334.59055l-145.27496 44.15103l0 -88.30206zm-105.466675 -217.55093l-66.17468 119.01907l-73.06183 -62.43814zm-254.53333 -90.1026l51.663208 124.150986l-103.326416 0zm-254.56665 90.1026l139.26987 56.580933l-73.061844 62.43814zm-105.433334 217.55093l145.27496 -44.15103l0 88.30206zm105.433334 217.52243l66.20802 -118.99057l73.061844 62.43814zm254.56665 90.1311l-51.663208 -124.151l103.326416 0zm254.53333 -90.1311l-139.23651 -56.55243l73.06183 -62.43814zm-434.53333 -217.52243c0 -84.95618 80.58873 -153.82677 179.99998 -153.82677c99.411255 0 180.0 68.87059 180.0 153.82677c0 84.95618 -80.588745 153.82678 -180.0 153.82678c-99.411255 0 -179.99998 -68.870605 -179.99998 -153.82678z" fill-rule="evenodd"/><path fill="#ffd966" d="m242.8011 334.58844l0 0c0 -86.12163 76.27376 -155.937 170.3622 -155.937l0 0c94.08847 0 170.36221 69.81537 170.36221 155.937l0 0c0 86.12164 -76.27374 155.93701 -170.36221 155.93701l0 0c-94.08844 0 -170.3622 -69.81537 -170.3622 -155.93701z" fill-rule="evenodd"/><path stroke="#e69138" stroke-width="12.0" stroke-linejoin="round" stroke-linecap="butt" d="m242.8011 334.58844l0 0c0 -86.12163 76.27376 -155.937 170.3622 -155.937l0 0c94.08847 0 170.36221 69.81537 170.36221 155.937l0 0c0 86.12164 -76.27374 155.93701 -170.36221 155.93701l0 0c-94.08844 0 -170.3622 -69.81537 -170.3622 -155.93701z" fill-rule="evenodd"/><path fill="#cfe2f3" d="m422.98602 323.4736l0 0c-4.1965027 -33.93631 9.58139 -67.531204 35.48712 -86.52913c25.905762 -18.997925 59.396057 -20.067047 86.259766 -2.753708l0 0c9.515991 -19.73198 26.932922 -33.35556 46.982605 -36.749847c20.049744 -3.3943024 40.377197 3.8393555 54.833862 19.512909l0 0c8.106323 -17.890274 24.023315 -29.910263 42.102783 -31.794632c18.079468 -1.8843689 35.762634 6.63356 46.77472 22.531189l0 0c14.645325 -18.963669 37.94641 -26.94815 59.82074 -20.498535c21.874329 6.4496155 38.393127 26.174911 42.40851 50.64067l0 0c17.943054 5.3857574 32.88916 19.077057 40.976868 37.53653c8.0877075 18.459473 8.52356 39.87628 1.1948853 58.71698l0 0c17.66864 25.305145 21.801819 59.023895 10.857056 88.57309c-10.944824 29.549164 -35.32318 50.48932 -64.03754 55.00595c-0.20239258 27.732971 -14.023987 53.18039 -36.13739 66.53372c-22.113342 13.3533325 -49.06537 12.527466 -70.46765 -2.1593628c-9.116211 33.215027 -34.77533 57.654297 -65.8916 62.759216c-31.116333 5.1048584 -62.111633 -10.039795 -79.59485 -38.89093c-21.430725 14.220825 -47.145813 18.317383 -71.34445 11.365601c-24.19867 -6.951782 -44.8425 -24.366394 -57.27469 -48.31537l0 0c-21.899506 2.8200684 -43.073303 -9.665527 -53.01291 -31.260284c-9.939636 -21.594696 -6.5291443 -47.701538 8.538849 -65.36374l0 0c-19.534943 -12.652374 -29.502838 -37.75885 -24.705841 -62.227417c4.796997 -24.468567 23.271881 -42.754547 45.79074 -45.32251z" fill-rule="evenodd"/><path fill="#000000" fill-opacity="0.0" d="m401.46823 432.33148l0 0c9.218597 5.970703 19.868225 8.679138 30.519012 7.761688m13.950256 88.86453c4.5802307 -0.5897827 9.069733 -1.8388062 13.352722 -3.7147827m115.26001 40.662964c-3.2214355 -5.316101 -5.918579 -10.996765 -8.045471 -16.945312m153.53754 -6.92395l0 0c1.6619873 -6.055603 2.7388306 -12.288086 3.2125244 -18.593567m103.38843 -45.778473c0.21551514 -29.526001 -15.024231 -56.560333 -39.173157 -69.490906m92.35315 -74.08499c-3.9108276 10.054169 -9.881165 18.973053 -17.442871 26.057434m-24.72522 -122.3136l0 0c0.66638184 4.0601044 0.97473145 8.181213 0.92089844 12.306244m-103.14844 -42.44716l0 0c-3.6532593 4.7304993 -6.663086 10.016754 -8.93573 15.694183m-79.94263 -6.432785l0 0c-1.9468384 4.2966614 -3.4006958 8.843277 -4.327881 13.535095m-97.48999 3.7021942l0 0c5.684326 3.663498 10.943115 8.072891 15.660828 13.131348m-137.40619 76.15196l0 0c0.57836914 4.677307 1.4922485 9.296967 2.7330627 13.815704" fill-rule="evenodd"/><path stroke="#ffffff" stroke-width="4.0" stroke-linejoin="round" stroke-linecap="butt" d="m422.98602 323.4736l0 0c-4.1965027 -33.93631 9.58139 -67.531204 35.48712 -86.52913c25.905762 -18.997925 59.396057 -20.067047 86.259766 -2.753708l0 0c9.515991 -19.73198 26.932922 -33.35556 46.982605 -36.749847c20.049744 -3.3943024 40.377197 3.8393555 54.833862 19.512909l0 0c8.106323 -17.890274 24.023315 -29.910263 42.102783 -31.794632c18.079468 -1.8843689 35.762634 6.63356 46.77472 22.531189l0 0c14.645325 -18.963669 37.94641 -26.94815 59.82074 -20.498535c21.874329 6.4496155 38.393127 26.174911 42.40851 50.64067l0 0c17.943054 5.3857574 32.88916 19.077057 40.976868 37.53653c8.0877075 18.459473 8.52356 39.87628 1.1948853 58.71698l0 0c17.66864 25.305145 21.801819 59.023895 10.857056 88.57309c-10.944824 29.549164 -35.32318 50.48932 -64.03754 55.00595c-0.20239258 27.732971 -14.023987 53.18039 -36.13739 66.53372c-22.113342 13.3533325 -49.06537 12.527466 -70.46765 -2.1593628c-9.116211 33.215027 -34.77533 57.654297 -65.8916 62.759216c-31.116333 5.1048584 -62.111633 -10.039795 -79.59485 -38.89093c-21.430725 14.220825 -47.145813 18.317383 -71.34445 11.365601c-24.19867 -6.951782 -44.8425 -24.366394 -57.27469 -48.31537l0 0c-21.899506 2.8200684 -43.073303 -9.665527 -53.01291 -31.260284c-9.939636 -21.594696 -6.5291443 -47.701538 8.538849 -65.36374l0 0c-19.534943 -12.652374 -29.502838 -37.75885 -24.705841 -62.227417c4.796997 -24.468567 23.271881 -42.754547 45.79074 -45.32251z" fill-rule="evenodd"/><path stroke="#ffffff" stroke-width="4.0" stroke-linejoin="round" stroke-linecap="butt" d="m401.46823 432.33148l0 0c9.218597 5.970703 19.868225 8.679138 30.519012 7.761688m13.950256 88.86453c4.5802307 -0.5897827 9.069733 -1.8388062 13.352722 -3.7147827m115.26001 40.662964c-3.2214355 -5.316101 -5.918579 -10.996765 -8.045471 -16.945312m153.53754 -6.92395l0 0c1.6619873 -6.055603 2.7388306 -12.288086 3.2125244 -18.593567m103.38843 -45.778473c0.21551514 -29.526001 -15.024231 -56.560333 -39.173157 -69.490906m92.35315 -74.08499c-3.9108276 10.054169 -9.881165 18.973053 -17.442871 26.057434m-24.72522 -122.3136l0 0c0.66638184 4.0601044 0.97473145 8.181213 0.92089844 12.306244m-103.14844 -42.44716l0 0c-3.6532593 4.7304993 -6.663086 10.016754 -8.93573 15.694183m-79.94263 -6.432785l0 0c-1.9468384 4.2966614 -3.4006958 8.843277 -4.327881 13.535095m-97.48999 3.7021942l0 0c5.684326 3.663498 10.943115 8.072891 15.660828 13.131348m-137.40619 76.15196l0 0c0.57836914 4.677307 1.4922485 9.296967 2.7330627 13.815704" fill-rule="evenodd"/><path fill="#cfe2f3" d="m317.27222 480.13058l0 0c-2.5724792 -21.257751 5.873474 -42.301666 21.753967 -54.201965c15.880463 -11.90033 36.41037 -12.570038 52.878113 -1.7249451l0 0c5.833374 -12.360138 16.510132 -20.893951 28.800812 -23.020172c12.290649 -2.1261902 24.751617 2.4049988 33.613678 12.222931l0 0c4.969269 -11.206482 14.7265625 -18.73584 25.809448 -19.916199c11.082855 -1.1803894 21.922852 4.1552734 28.67334 14.113556l0 0c8.977722 -11.878845 23.261536 -16.88034 36.670715 -12.8403015c13.409241 4.040039 23.5354 16.395996 25.996887 31.721375l0 0c10.999207 3.3736572 20.161377 11.949921 25.119202 23.51297c4.9578247 11.563019 5.2250366 24.978546 0.7324829 36.780396l0 0c10.831055 15.851166 13.364746 36.972626 6.6554565 55.48227c-6.7092285 18.509705 -21.653442 31.626587 -39.255615 34.45587c-0.12408447 17.371948 -8.596863 33.312256 -22.152588 41.67682c-13.555725 8.364563 -30.077576 7.847168 -43.197357 -1.3526611c-5.5883484 20.80597 -21.317627 36.114746 -40.392242 39.31244c-19.074615 3.197754 -38.075073 -6.2888794 -48.79245 -24.361328c-13.137238 8.907959 -28.900848 11.47406 -43.734863 7.119446c-14.834015 -4.3546143 -27.488892 -15.263123 -35.109955 -30.26477l0 0c-13.424622 1.7664795 -26.404358 -6.0545654 -32.497467 -19.581543c-6.0930786 -13.5269165 -4.002411 -29.88031 5.2344055 -40.94391l0 0c-11.975098 -7.925476 -18.08551 -23.652222 -15.144928 -38.97937c2.9406128 -15.327148 14.26593 -26.781494 28.07019 -28.390076z" fill-rule="evenodd"/><path fill="#000000" fill-opacity="0.0" d="m304.08157 548.31934l0 0c5.6510925 3.7400513 12.179443 5.4365845 18.708496 4.8619385m8.551636 55.664856c2.8077393 -0.3694458 5.559845 -1.1518555 8.185364 -2.3269653m70.65555 25.471375c-1.9747925 -3.330017 -3.6281738 -6.8884277 -4.9319763 -10.614624m94.120026 -4.337158l0 0c1.0188599 -3.793213 1.6789551 -7.6972656 1.9693604 -11.647034m63.378113 -28.67566c0.13208008 -18.495178 -9.209961 -35.429504 -24.01355 -43.529236m56.613464 -46.40695c-2.3974 6.297943 -6.057312 11.884766 -10.692688 16.322418m-15.156799 -76.6174l0 0c0.40844727 2.5432434 0.5975342 5.1247253 0.56451416 7.7086487m-63.23105 -26.58899l0 0c-2.239502 2.9631958 -4.0845337 6.274536 -5.4776917 9.830872m-49.005615 -4.0295105l0 0c-1.1934509 2.6914368 -2.0846558 5.539459 -2.6530457 8.478424m-59.76236 2.3190308l0 0c3.484558 2.2948303 6.708252 5.056885 9.600281 8.225525m-84.231384 47.70169l0 0c0.35455322 2.9298706 0.9147644 5.823639 1.6753845 8.654175" fill-rule="evenodd"/><path stroke="#ffffff" stroke-width="4.0" stroke-linejoin="round" stroke-linecap="butt" d="m317.27222 480.13058l0 0c-2.5724792 -21.257751 5.873474 -42.301666 21.753967 -54.201965c15.880463 -11.90033 36.41037 -12.570038 52.878113 -1.7249451l0 0c5.833374 -12.360138 16.510132 -20.893951 28.800812 -23.020172c12.290649 -2.1261902 24.751617 2.4049988 33.613678 12.222931l0 0c4.969269 -11.206482 14.7265625 -18.73584 25.809448 -19.916199c11.082855 -1.1803894 21.922852 4.1552734 28.67334 14.113556l0 0c8.977722 -11.878845 23.261536 -16.88034 36.670715 -12.8403015c13.409241 4.040039 23.5354 16.395996 25.996887 31.721375l0 0c10.999207 3.3736572 20.161377 11.949921 25.119202 23.51297c4.9578247 11.563019 5.2250366 24.978546 0.7324829 36.780396l0 0c10.831055 15.851166 13.364746 36.972626 6.6554565 55.48227c-6.7092285 18.509705 -21.653442 31.626587 -39.255615 34.45587c-0.12408447 17.371948 -8.596863 33.312256 -22.152588 41.67682c-13.555725 8.364563 -30.077576 7.847168 -43.197357 -1.3526611c-5.5883484 20.80597 -21.317627 36.114746 -40.392242 39.31244c-19.074615 3.197754 -38.075073 -6.2888794 -48.79245 -24.361328c-13.137238 8.907959 -28.900848 11.47406 -43.734863 7.119446c-14.834015 -4.3546143 -27.488892 -15.263123 -35.109955 -30.26477l0 0c-13.424622 1.7664795 -26.404358 -6.0545654 -32.497467 -19.581543c-6.0930786 -13.5269165 -4.002411 -29.88031 5.2344055 -40.94391l0 0c-11.975098 -7.925476 -18.08551 -23.652222 -15.144928 -38.97937c2.9406128 -15.327148 14.26593 -26.781494 28.07019 -28.390076z" fill-rule="evenodd"/><path stroke="#ffffff" stroke-width="4.0" stroke-linejoin="round" stroke-linecap="butt" d="m304.08157 548.31934l0 0c5.6510925 3.7400513 12.179443 5.4365845 18.708496 4.8619385m8.551636 55.664856c2.8077393 -0.3694458 5.559845 -1.1518555 8.185364 -2.3269653m70.65555 25.471375c-1.9747925 -3.330017 -3.6281738 -6.8884277 -4.9319763 -10.614624m94.120026 -4.337158l0 0c1.0188599 -3.793213 1.6789551 -7.6972656 1.9693604 -11.647034m63.378113 -28.67566c0.13208008 -18.495178 -9.209961 -35.429504 -24.01355 -43.529236m56.613464 -46.40695c-2.3974 6.297943 -6.057312 11.884766 -10.692688 16.322418m-15.156799 -76.6174l0 0c0.40844727 2.5432434 0.5975342 5.1247253 0.56451416 7.7086487m-63.23105 -26.58899l0 0c-2.239502 2.9631958 -4.0845337 6.274536 -5.4776917 9.830872m-49.005615 -4.0295105l0 0c-1.1934509 2.6914368 -2.0846558 5.539459 -2.6530457 8.478424m-59.76236 2.3190308l0 0c3.484558 2.2948303 6.708252 5.056885 9.600281 8.225525m-84.231384 47.70169l0 0c0.35455322 2.9298706 0.9147644 5.823639 1.6753845 8.654175" fill-rule="evenodd"/></g></svg>