<svg version="1.1" viewBox="0.0 0.0 960.0 720.0" fill="none" stroke="none" stroke-linecap="square" stroke-miterlimit="10" xmlns:xlink="http://www.w3.org/1999/xlink" xmlns="http://www.w3.org/2000/svg"><clipPath id="p.0"><path d="m0 0l960.0 0l0 720.0l-960.0 0l0 -720.0z" clip-rule="nonzero"/></clipPath><g clip-path="url(#p.0)"><path fill="#000000" fill-opacity="0.0" d="m0 0l960.0 0l0 720.0l-960.0 0z" fill-rule="evenodd"/><path fill="#cfe2f3" d="m223.9932 170.19252l0 0c-2.2689514 -18.904419 5.1805115 -37.618652 19.187317 -48.20156c14.006805 -10.582901 32.114502 -11.178467 46.63925 -1.5339661l0 0c5.145111 -10.991814 14.562195 -18.58091 25.40274 -20.471718c10.840546 -1.8908157 21.831268 2.138733 29.647736 10.8697815l0 0c4.3829956 -9.965889 12.989044 -16.66169 22.764282 -17.711388c9.775269 -1.0496979 19.336304 3.695259 25.290314 12.551125l0 0c7.918518 -10.563812 20.517029 -15.01162 32.344116 -11.418823c11.827118 3.5927963 20.758514 14.580894 22.929596 28.209679l0 0c9.701508 3.0001678 17.782654 10.626991 22.155518 20.90995c4.3728943 10.282959 4.6085205 22.213318 0.6460571 32.708633l0 0c9.553162 14.0963745 11.787872 32.87961 5.8702087 49.34015c-5.9176636 16.46054 -19.098633 28.125381 -34.624023 30.641403c-0.109436035 15.4487915 -7.58255 29.62445 -19.53888 37.06299c-11.956329 7.438568 -26.52887 6.978485 -38.100708 -1.2028809c-4.9289856 18.502625 -18.80246 32.11667 -35.626526 34.96039c-16.824097 2.843689 -33.582764 -5.5927124 -43.035614 -21.664429c-11.58725 7.9217834 -25.490997 10.203827 -38.5748 6.3312683c-13.083817 -3.872528 -24.245605 -13.573425 -30.967468 -26.914337l0 0c-11.8407135 1.5709229 -23.289047 -5.384247 -28.663239 -17.413727c-5.374176 -12.029465 -3.530182 -26.572433 4.6168213 -36.41127l0 0c-10.56221 -7.048065 -15.951691 -21.033783 -13.358032 -34.66414c2.5936584 -13.630356 12.582718 -23.816666 24.7583 -25.247162z" fill-rule="evenodd"/><path fill="#000000" fill-opacity="0.0" d="m212.35889 230.83244l0 0c4.9843445 3.326004 10.742432 4.8347626 16.501144 4.3236847m7.5426636 49.502502c2.476471 -0.32855225 4.9038696 -1.024292 7.2196045 -2.0693054m62.3192 22.65152c-1.7417908 -2.9613647 -3.2000732 -6.125824 -4.350067 -9.439484m83.01523 -3.8570251l0 0c0.8986206 -3.3733215 1.4808655 -6.845154 1.7369995 -10.357666m55.90039 -25.50116c0.11651611 -16.447632 -8.123322 -31.507263 -21.180298 -38.710327m49.93387 -41.26947c-2.1145325 5.6007233 -5.3425903 10.569061 -9.431091 14.515442m-13.3685 -68.1355l0 0c0.36029053 2.2616959 0.52700806 4.557396 0.4978943 6.855255m-55.77066 -23.645432l0 0c-1.9752808 2.635147 -3.6026306 5.579895 -4.831421 8.742538m-43.223633 -3.5834198l0 0c-1.0526733 2.3934784 -1.8387146 4.926193 -2.3400574 7.5398026m-52.711243 2.0623245l0 0c3.0734558 2.0407715 5.9167786 4.497055 8.46759 7.3149033m-74.293304 42.42089l0 0c0.31272888 2.6055298 0.80685425 5.1789246 1.4777374 7.696121" fill-rule="evenodd"/><path stroke="#ffffff" stroke-width="4.0" stroke-linejoin="round" stroke-linecap="butt" d="m223.9932 170.19252l0 0c-2.2689514 -18.904419 5.1805115 -37.618652 19.187317 -48.20156c14.006805 -10.582901 32.114502 -11.178467 46.63925 -1.5339661l0 0c5.145111 -10.991814 14.562195 -18.58091 25.40274 -20.471718c10.840546 -1.8908157 21.831268 2.138733 29.647736 10.8697815l0 0c4.3829956 -9.965889 12.989044 -16.66169 22.764282 -17.711388c9.775269 -1.0496979 19.336304 3.695259 25.290314 12.551125l0 0c7.918518 -10.563812 20.517029 -15.01162 32.344116 -11.418823c11.827118 3.5927963 20.758514 14.580894 22.929596 28.209679l0 0c9.701508 3.0001678 17.782654 10.626991 22.155518 20.90995c4.3728943 10.282959 4.6085205 22.213318 0.6460571 32.708633l0 0c9.553162 14.0963745 11.787872 32.87961 5.8702087 49.34015c-5.9176636 16.46054 -19.098633 28.125381 -34.624023 30.641403c-0.109436035 15.4487915 -7.58255 29.62445 -19.53888 37.06299c-11.956329 7.438568 -26.52887 6.978485 -38.100708 -1.2028809c-4.9289856 18.502625 -18.80246 32.11667 -35.626526 34.96039c-16.824097 2.843689 -33.582764 -5.5927124 -43.035614 -21.664429c-11.58725 7.9217834 -25.490997 10.203827 -38.5748 6.3312683c-13.083817 -3.872528 -24.245605 -13.573425 -30.967468 -26.914337l0 0c-11.8407135 1.5709229 -23.289047 -5.384247 -28.663239 -17.413727c-5.374176 -12.029465 -3.530182 -26.572433 4.6168213 -36.41127l0 0c-10.56221 -7.048065 -15.951691 -21.033783 -13.358032 -34.66414c2.5936584 -13.630356 12.582718 -23.816666 24.7583 -25.247162z" fill-rule="evenodd"/><path stroke="#ffffff" stroke-width="4.0" stroke-linejoin="round" stroke-linecap="butt" d="m212.35889 230.83244l0 0c4.9843445 3.326004 10.742432 4.8347626 16.501144 4.3236847m7.5426636 49.502502c2.476471 -0.32855225 4.9038696 -1.024292 7.2196045 -2.0693054m62.3192 22.65152c-1.7417908 -2.9613647 -3.2000732 -6.125824 -4.350067 -9.439484m83.01523 -3.8570251l0 0c0.8986206 -3.3733215 1.4808655 -6.845154 1.7369995 -10.357666m55.90039 -25.50116c0.11651611 -16.447632 -8.123322 -31.507263 -21.180298 -38.710327m49.93387 -41.26947c-2.1145325 5.6007233 -5.3425903 10.569061 -9.431091 14.515442m-13.3685 -68.1355l0 0c0.36029053 2.2616959 0.52700806 4.557396 0.4978943 6.855255m-55.77066 -23.645432l0 0c-1.9752808 2.635147 -3.6026306 5.579895 -4.831421 8.742538m-43.223633 -3.5834198l0 0c-1.0526733 2.3934784 -1.8387146 4.926193 -2.3400574 7.5398026m-52.711243 2.0623245l0 0c3.0734558 2.0407715 5.9167786 4.497055 8.46759 7.3149033m-74.293304 42.42089l0 0c0.31272888 2.6055298 0.80685425 5.1789246 1.4777374 7.696121" fill-rule="evenodd"/><path fill="#1155cc" d="m270.57623 541.63214l0 0c11.428375 -62.073303 40.730804 -108.70618 65.44882 -104.15744l0 0c11.869995 2.1843567 21.0737 16.120728 25.586395 38.743225c4.512665 22.622498 3.9646912 52.078033 -1.523407 81.88669l0 0c-11.428375 62.073303 -40.730804 108.70624 -65.44882 104.15747l0 0c-24.717987 -4.548706 -35.491364 -58.55658 -24.062988 -120.629944z" fill-rule="evenodd"/><path stroke="#ffffff" stroke-width="8.0" stroke-linejoin="round" stroke-linecap="butt" d="m270.57623 541.63214l0 0c11.428375 -62.073303 40.730804 -108.70618 65.44882 -104.15744l0 0c11.869995 2.1843567 21.0737 16.120728 25.586395 38.743225c4.512665 22.622498 3.9646912 52.078033 -1.523407 81.88669l0 0c-11.428375 62.073303 -40.730804 108.70624 -65.44882 104.15747l0 0c-24.717987 -4.548706 -35.491364 -58.55658 -24.062988 -120.629944z" fill-rule="evenodd"/><path fill="#1155cc" d="m469.08466 570.9344l0 0c8.68869 -47.14862 32.98517 -82.19025 54.2677 -78.26773l0 0c10.220215 1.883667 18.36438 12.684509 22.640808 30.026459c4.276428 17.341919 4.334839 39.804443 0.16235352 62.445984l0 0c-8.688721 47.14856 -32.98517 82.19025 -54.26773 78.2677l0 0c-21.282532 -3.9225464 -31.491852 -45.323853 -22.803131 -92.47241z" fill-rule="evenodd"/><path stroke="#ffffff" stroke-width="8.0" stroke-linejoin="round" stroke-linecap="butt" d="m469.08466 570.9344l0 0c8.68869 -47.14862 32.98517 -82.19025 54.2677 -78.26773l0 0c10.220215 1.883667 18.36438 12.684509 22.640808 30.026459c4.276428 17.341919 4.334839 39.804443 0.16235352 62.445984l0 0c-8.688721 47.14856 -32.98517 82.19025 -54.26773 78.2677l0 0c-21.282532 -3.9225464 -31.491852 -45.323853 -22.803131 -92.47241z" fill-rule="evenodd"/><path fill="#1155cc" d="m633.4756 547.66425l0 0c12.045898 -65.40445 41.348328 -114.82938 65.44879 -110.39371l0 0c11.573486 2.1300964 20.374939 16.649841 24.468262 40.36505c4.0933228 23.71524 3.1431274 54.68332 -2.6414795 86.091644l0 0c-12.045898 65.40442 -41.348328 114.829346 -65.44885 110.39368l0 0c-24.100464 -4.435669 -33.87262 -61.052246 -21.826721 -126.456665z" fill-rule="evenodd"/><path stroke="#ffffff" stroke-width="8.0" stroke-linejoin="round" stroke-linecap="butt" d="m633.4756 547.66425l0 0c12.045898 -65.40445 41.348328 -114.82938 65.44879 -110.39371l0 0c11.573486 2.1300964 20.374939 16.649841 24.468262 40.36505c4.0933228 23.71524 3.1431274 54.68332 -2.6414795 86.091644l0 0c-12.045898 65.40442 -41.348328 114.829346 -65.44885 110.39368l0 0c-24.100464 -4.435669 -33.87262 -61.052246 -21.826721 -126.456665z" fill-rule="evenodd"/><path fill="#cfe2f3" d="m301.2898 194.53136l0 0c-4.5910645 -33.936325 10.482269 -67.53122 38.82379 -86.529144c28.341522 -18.997925 64.98074 -20.067047 94.3703 -2.7537003l0 0c10.410675 -19.731987 29.465271 -33.35556 51.400116 -36.749855c21.934845 -3.3943024 44.173615 3.8393555 59.989532 19.512917l0 0c8.868591 -17.890282 26.282166 -29.91027 46.061523 -31.79464c19.779297 -1.8843727 39.125183 6.63356 51.172607 22.531181l0 0c16.022339 -18.963654 41.514343 -26.948143 65.44537 -20.498528c23.931091 6.4496155 42.00299 26.17492 46.395996 50.64067l0 0c19.630066 5.3857574 35.981567 19.077072 44.82965 37.536545c8.848145 18.459473 9.324951 39.876266 1.307251 58.716965l0 0c19.329956 25.30513 23.851685 59.023895 11.877869 88.57309c-11.973877 29.549164 -38.64441 50.48932 -70.058655 55.00595c-0.22137451 27.732971 -15.34259 53.18039 -39.535095 66.53375c-24.192566 13.3533325 -53.678772 12.527435 -77.09338 -2.1593933c-9.973328 33.215027 -38.045044 57.654297 -72.087036 62.759216c-34.041992 5.104889 -67.95163 -10.039795 -87.078674 -38.89093c-23.44574 14.220825 -51.578674 18.317383 -78.05258 11.365601c-26.473938 -6.9518127 -49.058777 -24.366364 -62.65988 -48.31534l0 0c-23.958618 2.8200378 -47.12326 -9.665558 -57.997437 -31.260284c-10.874176 -21.594727 -7.143036 -47.70157 9.341705 -65.36377l0 0c-21.371704 -12.652374 -32.276825 -37.75885 -27.028793 -62.227417c5.2480316 -24.468567 25.460007 -42.754547 50.096176 -45.32251z" fill-rule="evenodd"/><path fill="#000000" fill-opacity="0.0" d="m277.7488 303.38925l0 0c10.085358 5.9706726 21.736328 8.679108 33.38855 7.7616577m15.261932 88.86453c5.010895 -0.5897827 9.922516 -1.8387756 14.608185 -3.7147522m126.09729 40.662933c-3.524353 -5.3160706 -6.4750977 -10.996796 -8.802002 -16.945312m167.97379 -6.92395l0 0c1.8182983 -6.0555725 2.996399 -12.288086 3.5146484 -18.593567m113.109436 -45.778442c0.23577881 -29.526031 -16.436829 -56.560333 -42.856384 -69.49094m101.03662 -74.08501c-4.2785645 10.054169 -10.810242 18.973083 -19.083008 26.057434m-27.049927 -122.313576l0 0c0.7290039 4.0600967 1.0664062 8.181213 1.0075073 12.306236m-112.846924 -42.44715l0 0c-3.9967651 4.7304916 -7.289612 10.0167465 -9.77594 15.694183m-87.45911 -6.4327927l0 0c-2.1299438 4.296669 -3.720459 8.843277 -4.7348633 13.535103m-106.65643 3.7021866l0 0c6.218811 3.663498 11.972046 8.072899 17.133362 13.131355m-150.32574 76.15197l0 0c0.63275146 4.677307 1.6325684 9.296951 2.9900513 13.815689" fill-rule="evenodd"/><path stroke="#ffffff" stroke-width="12.0" stroke-linejoin="round" stroke-linecap="butt" d="m301.2898 194.53136l0 0c-4.5910645 -33.936325 10.482269 -67.53122 38.82379 -86.529144c28.341522 -18.997925 64.98074 -20.067047 94.3703 -2.7537003l0 0c10.410675 -19.731987 29.465271 -33.35556 51.400116 -36.749855c21.934845 -3.3943024 44.173615 3.8393555 59.989532 19.512917l0 0c8.868591 -17.890282 26.282166 -29.91027 46.061523 -31.79464c19.779297 -1.8843727 39.125183 6.63356 51.172607 22.531181l0 0c16.022339 -18.963654 41.514343 -26.948143 65.44537 -20.498528c23.931091 6.4496155 42.00299 26.17492 46.395996 50.64067l0 0c19.630066 5.3857574 35.981567 19.077072 44.82965 37.536545c8.848145 18.459473 9.324951 39.876266 1.307251 58.716965l0 0c19.329956 25.30513 23.851685 59.023895 11.877869 88.57309c-11.973877 29.549164 -38.64441 50.48932 -70.058655 55.00595c-0.22137451 27.732971 -15.34259 53.18039 -39.535095 66.53375c-24.192566 13.3533325 -53.678772 12.527435 -77.09338 -2.1593933c-9.973328 33.215027 -38.045044 57.654297 -72.087036 62.759216c-34.041992 5.104889 -67.95163 -10.039795 -87.078674 -38.89093c-23.44574 14.220825 -51.578674 18.317383 -78.05258 11.365601c-26.473938 -6.9518127 -49.058777 -24.366364 -62.65988 -48.31534l0 0c-23.958618 2.8200378 -47.12326 -9.665558 -57.997437 -31.260284c-10.874176 -21.594727 -7.143036 -47.70157 9.341705 -65.36377l0 0c-21.371704 -12.652374 -32.276825 -37.75885 -27.028793 -62.227417c5.2480316 -24.468567 25.460007 -42.754547 50.096176 -45.32251z" fill-rule="evenodd"/><path stroke="#ffffff" stroke-width="12.0" stroke-linejoin="round" stroke-linecap="butt" d="m277.7488 303.38925l0 0c10.085358 5.9706726 21.736328 8.679108 33.38855 7.7616577m15.261932 88.86453c5.010895 -0.5897827 9.922516 -1.8387756 14.608185 -3.7147522m126.09729 40.662933c-3.524353 -5.3160706 -6.4750977 -10.996796 -8.802002 -16.945312m167.97379 -6.92395l0 0c1.8182983 -6.0555725 2.996399 -12.288086 3.5146484 -18.593567m113.109436 -45.778442c0.23577881 -29.526031 -16.436829 -56.560333 -42.856384 -69.49094m101.03662 -74.08501c-4.2785645 10.054169 -10.810242 18.973083 -19.083008 26.057434m-27.049927 -122.313576l0 0c0.7290039 4.0600967 1.0664062 8.181213 1.0075073 12.306236m-112.846924 -42.44715l0 0c-3.9967651 4.7304916 -7.289612 10.0167465 -9.77594 15.694183m-87.45911 -6.4327927l0 0c-2.1299438 4.296669 -3.720459 8.843277 -4.7348633 13.535103m-106.65643 3.7021866l0 0c6.218811 3.663498 11.972046 8.072899 17.133362 13.131355m-150.32574 76.15197l0 0c0.63275146 4.677307 1.6325684 9.296951 2.9900513 13.815689" fill-rule="evenodd"/></g></svg>