<svg version="1.1" viewBox="0.0 0.0 960.0 720.0" fill="none" stroke="none" stroke-linecap="square" stroke-miterlimit="10" xmlns:xlink="http://www.w3.org/1999/xlink" xmlns="http://www.w3.org/2000/svg"><clipPath id="p.0"><path d="m0 0l960.0 0l0 720.0l-960.0 0l0 -720.0z" clip-rule="nonzero"/></clipPath><g clip-path="url(#p.0)"><path fill="#000000" fill-opacity="0.0" d="m0 0l960.0 0l0 720.0l-960.0 0z" fill-rule="evenodd"/><path fill="#cfe2f3" d="m104.92858 176.67422l0 0c-3.9915085 -30.975677 9.113411 -61.63971 33.75387 -78.98023c24.640457 -17.340523 56.49504 -18.316376 82.04668 -2.513466l0 0c9.051178 -18.010544 25.617462 -30.44558 44.687866 -33.543755c19.070435 -3.098175 38.40509 3.5044022 52.15564 17.810585l0 0c7.7104187 -16.329514 22.850006 -27.300858 40.046417 -29.020836c17.19638 -1.7199745 34.0159 6.05484 44.490112 20.565536l0 0c13.930023 -17.309242 36.09305 -24.597153 56.898987 -18.710213c20.805939 5.88694 36.517914 23.891388 40.33719 46.222717l0 0c17.06665 4.9158936 31.282837 17.412766 38.975464 34.26181c7.692688 16.849045 8.107239 36.3974 1.1365356 53.59442l0 0c16.805664 23.097473 20.736938 53.874588 10.326721 80.84584c-10.410217 26.971283 -33.59784 46.084595 -60.90976 50.207184c-0.19250488 25.313507 -13.33905 48.540863 -34.372345 60.729248c-21.033295 12.188385 -46.668945 11.43454 -67.02585 -1.9709778c-8.67099 30.317291 -33.076843 52.62445 -62.67337 57.283997c-29.596527 4.659546 -59.077972 -9.163879 -75.707245 -35.498047c-20.384003 12.980194 -44.843124 16.71939 -67.85986 10.374054c-23.016724 -6.3453064 -42.652267 -22.2406 -54.47724 -44.10022l0 0c-20.829895 2.5740051 -40.96953 -8.822357 -50.423668 -28.533112c-9.45414 -19.710785 -6.210228 -43.54001 8.121796 -59.661346l0 0c-18.58081 -11.548553 -28.061855 -34.46472 -23.49915 -56.79863c4.56271 -22.333893 22.135242 -39.024567 43.55422 -41.368515z" fill-rule="evenodd"/><path fill="#000000" fill-opacity="0.0" d="m84.46177 276.0352l0 0c8.768341 5.4497986 18.897835 7.9219666 29.02842 7.084564m13.26889 81.11188c4.3565216 -0.5383606 8.626755 -1.6783752 12.700546 -3.390686m109.63048 37.115448c-3.0641022 -4.852295 -5.6295166 -10.037415 -7.652542 -15.46698m146.03842 -6.3198853l0 0c1.5808411 -5.527313 2.6051025 -11.216095 3.055664 -16.971436m98.338715 -41.7847c0.20495605 -26.950134 -14.290405 -51.625946 -37.259888 -63.42845m87.84247 -67.621735c-3.7198486 9.177032 -9.39856 17.31784 -16.591003 23.78415m-23.517517 -111.64279l0 0c0.63378906 3.7058945 0.927124 7.4674835 0.8759155 11.232628m-98.11047 -38.74401l0 0c-3.4748535 4.3178024 -6.3376465 9.142883 -8.499298 14.325012m-76.038025 -5.8715897l0 0c-1.8517761 3.9218216 -3.2345886 8.071777 -4.1165466 12.354279m-92.72835 3.3792038l0 0c5.406708 3.3438873 10.408646 7.368614 14.895935 11.985764m-130.695 69.50838l0 0c0.55013275 4.2692566 1.4193726 8.48587 2.5995865 12.610382" fill-rule="evenodd"/><path stroke="#ffffff" stroke-width="12.0" stroke-linejoin="round" stroke-linecap="butt" d="m104.92858 176.67422l0 0c-3.9915085 -30.975677 9.113411 -61.63971 33.75387 -78.98023c24.640457 -17.340523 56.49504 -18.316376 82.04668 -2.513466l0 0c9.051178 -18.010544 25.617462 -30.44558 44.687866 -33.543755c19.070435 -3.098175 38.40509 3.5044022 52.15564 17.810585l0 0c7.7104187 -16.329514 22.850006 -27.300858 40.046417 -29.020836c17.19638 -1.7199745 34.0159 6.05484 44.490112 20.565536l0 0c13.930023 -17.309242 36.09305 -24.597153 56.898987 -18.710213c20.805939 5.88694 36.517914 23.891388 40.33719 46.222717l0 0c17.06665 4.9158936 31.282837 17.412766 38.975464 34.26181c7.692688 16.849045 8.107239 36.3974 1.1365356 53.59442l0 0c16.805664 23.097473 20.736938 53.874588 10.326721 80.84584c-10.410217 26.971283 -33.59784 46.084595 -60.90976 50.207184c-0.19250488 25.313507 -13.33905 48.540863 -34.372345 60.729248c-21.033295 12.188385 -46.668945 11.43454 -67.02585 -1.9709778c-8.67099 30.317291 -33.076843 52.62445 -62.67337 57.283997c-29.596527 4.659546 -59.077972 -9.163879 -75.707245 -35.498047c-20.384003 12.980194 -44.843124 16.71939 -67.85986 10.374054c-23.016724 -6.3453064 -42.652267 -22.2406 -54.47724 -44.10022l0 0c-20.829895 2.5740051 -40.96953 -8.822357 -50.423668 -28.533112c-9.45414 -19.710785 -6.210228 -43.54001 8.121796 -59.661346l0 0c-18.58081 -11.548553 -28.061855 -34.46472 -23.49915 -56.79863c4.56271 -22.333893 22.135242 -39.024567 43.55422 -41.368515z" fill-rule="evenodd"/><path stroke="#ffffff" stroke-width="12.0" stroke-linejoin="round" stroke-linecap="butt" d="m84.46177 276.0352l0 0c8.768341 5.4497986 18.897835 7.9219666 29.02842 7.084564m13.26889 81.11188c4.3565216 -0.5383606 8.626755 -1.6783752 12.700546 -3.390686m109.63048 37.115448c-3.0641022 -4.852295 -5.6295166 -10.037415 -7.652542 -15.46698m146.03842 -6.3198853l0 0c1.5808411 -5.527313 2.6051025 -11.216095 3.055664 -16.971436m98.338715 -41.7847c0.20495605 -26.950134 -14.290405 -51.625946 -37.259888 -63.42845m87.84247 -67.621735c-3.7198486 9.177032 -9.39856 17.31784 -16.591003 23.78415m-23.517517 -111.64279l0 0c0.63378906 3.7058945 0.927124 7.4674835 0.8759155 11.232628m-98.11047 -38.74401l0 0c-3.4748535 4.3178024 -6.3376465 9.142883 -8.499298 14.325012m-76.038025 -5.8715897l0 0c-1.8517761 3.9218216 -3.2345886 8.071777 -4.1165466 12.354279m-92.72835 3.3792038l0 0c5.406708 3.3438873 10.408646 7.368614 14.895935 11.985764m-130.695 69.50838l0 0c0.55013275 4.2692566 1.4193726 8.48587 2.5995865 12.610382" fill-rule="evenodd"/><path fill="#cfe2f3" d="m200.61896 268.87756l0 0c-5.4978485 -43.91948 12.552673 -87.397095 46.492065 -111.98369c33.939392 -24.586609 77.8154 -25.970245 113.00986 -3.5637665l0 0c12.466949 -25.536613 35.285095 -43.167877 61.5524 -47.560684c26.267303 -4.392807 52.89856 4.968796 71.83835 25.253098l0 0c10.620239 -23.15313 31.473236 -38.70907 55.159332 -41.147774c23.686035 -2.4386978 46.853027 8.584976 61.28003 29.159256l0 0c19.187012 -24.542252 49.71399 -34.875565 78.371765 -26.528648c28.657837 8.346916 50.299255 33.874886 55.559875 65.537796l0 0c23.507324 6.970108 43.08844 24.689041 53.684204 48.57878c10.595764 23.889755 11.166748 51.606796 1.5654907 75.989944l0 0c23.147827 32.749207 28.562683 76.387146 14.223816 114.628876c-14.338867 38.24176 -46.27716 65.34195 -83.89618 71.187256c-0.26513672 35.891235 -18.372986 68.824615 -47.343933 86.10617c-28.970947 17.281555 -64.28113 16.212646 -92.320435 -2.7946167c-11.943237 42.985962 -45.55951 74.614685 -86.32532 81.22125c-40.76581 6.6066284 -81.37311 -12.993164 -104.278015 -50.331543c-28.07663 18.404175 -61.766235 23.705872 -93.46915 14.709045c-31.70288 -8.996826 -58.748596 -31.534302 -75.03612 -62.528442l0 0c-28.690796 3.6496582 -56.430817 -12.508911 -69.452805 -40.456207c-13.021988 -27.947327 -8.553879 -61.73407 11.186844 -84.59204l0 0c-25.592926 -16.374329 -38.651978 -48.866486 -32.36737 -80.53305c6.2845917 -31.666565 30.488739 -55.331757 59.990906 -58.65515z" fill-rule="evenodd"/><path fill="#000000" fill-opacity="0.0" d="m172.42828 409.7585l0 0c12.077377 7.7270813 26.029572 11.2323 39.98329 10.044952m18.276367 115.0061c6.0006256 -0.76330566 11.882355 -2.3797607 17.493546 -4.807556m151.00336 52.624878c-4.220459 -6.879944 -7.7540283 -14.2317505 -10.540497 -21.930176m201.15112 -8.960754l0 0c2.1774292 -7.836975 3.5881958 -15.902954 4.2088013 -24.063293m135.45026 -59.24527c0.2822876 -38.211792 -19.68341 -73.19888 -51.321228 -89.93329m120.99292 -95.878815c-5.123657 13.01181 -12.945435 24.554443 -22.852173 33.72281m-32.3927 -158.29495l0 0c0.87298584 5.254471 1.2770386 10.587921 1.2064819 15.926407m-135.13586 -54.93396l0 0c-4.786194 6.1220703 -8.729431 12.963409 -11.706848 20.31099m-104.73358 -8.32515l0 0c-2.5506287 5.5606384 -4.4552917 11.444733 -5.6700745 17.51677m-127.72266 4.791275l0 0c7.4471436 4.7411957 14.336731 10.447723 20.517456 16.994247m-180.0173 98.55383l0 0c0.7577362 6.053253 1.9550171 12.03186 3.5806122 17.879883" fill-rule="evenodd"/><path stroke="#ffffff" stroke-width="16.0" stroke-linejoin="round" stroke-linecap="butt" d="m200.61896 268.87756l0 0c-5.4978485 -43.91948 12.552673 -87.397095 46.492065 -111.98369c33.939392 -24.586609 77.8154 -25.970245 113.00986 -3.5637665l0 0c12.466949 -25.536613 35.285095 -43.167877 61.5524 -47.560684c26.267303 -4.392807 52.89856 4.968796 71.83835 25.253098l0 0c10.620239 -23.15313 31.473236 -38.70907 55.159332 -41.147774c23.686035 -2.4386978 46.853027 8.584976 61.28003 29.159256l0 0c19.187012 -24.542252 49.71399 -34.875565 78.371765 -26.528648c28.657837 8.346916 50.299255 33.874886 55.559875 65.537796l0 0c23.507324 6.970108 43.08844 24.689041 53.684204 48.57878c10.595764 23.889755 11.166748 51.606796 1.5654907 75.989944l0 0c23.147827 32.749207 28.562683 76.387146 14.223816 114.628876c-14.338867 38.24176 -46.27716 65.34195 -83.89618 71.187256c-0.26513672 35.891235 -18.372986 68.824615 -47.343933 86.10617c-28.970947 17.281555 -64.28113 16.212646 -92.320435 -2.7946167c-11.943237 42.985962 -45.55951 74.614685 -86.32532 81.22125c-40.76581 6.6066284 -81.37311 -12.993164 -104.278015 -50.331543c-28.07663 18.404175 -61.766235 23.705872 -93.46915 14.709045c-31.70288 -8.996826 -58.748596 -31.534302 -75.03612 -62.528442l0 0c-28.690796 3.6496582 -56.430817 -12.508911 -69.452805 -40.456207c-13.021988 -27.947327 -8.553879 -61.73407 11.186844 -84.59204l0 0c-25.592926 -16.374329 -38.651978 -48.866486 -32.36737 -80.53305c6.2845917 -31.666565 30.488739 -55.331757 59.990906 -58.65515z" fill-rule="evenodd"/><path stroke="#ffffff" stroke-width="16.0" stroke-linejoin="round" stroke-linecap="butt" d="m172.42828 409.7585l0 0c12.077377 7.7270813 26.029572 11.2323 39.98329 10.044952m18.276367 115.0061c6.0006256 -0.76330566 11.882355 -2.3797607 17.493546 -4.807556m151.00336 52.624878c-4.220459 -6.879944 -7.7540283 -14.2317505 -10.540497 -21.930176m201.15112 -8.960754l0 0c2.1774292 -7.836975 3.5881958 -15.902954 4.2088013 -24.063293m135.45026 -59.24527c0.2822876 -38.211792 -19.68341 -73.19888 -51.321228 -89.93329m120.99292 -95.878815c-5.123657 13.01181 -12.945435 24.554443 -22.852173 33.72281m-32.3927 -158.29495l0 0c0.87298584 5.254471 1.2770386 10.587921 1.2064819 15.926407m-135.13586 -54.93396l0 0c-4.786194 6.1220703 -8.729431 12.963409 -11.706848 20.31099m-104.73358 -8.32515l0 0c-2.5506287 5.5606384 -4.4552917 11.444733 -5.6700745 17.51677m-127.72266 4.791275l0 0c7.4471436 4.7411957 14.336731 10.447723 20.517456 16.994247m-180.0173 98.55383l0 0c0.7577362 6.053253 1.9550171 12.03186 3.5806122 17.879883" fill-rule="evenodd"/><path fill="#cfe2f3" d="m512.542 377.46323l0 0c-2.906372 -21.52301 6.635742 -42.8295 24.57727 -54.878296c17.941528 -12.048828 41.135864 -12.726868 59.740845 -1.74646l0 0c6.590454 -12.514343 18.652954 -21.154663 32.538696 -23.307373c13.885803 -2.1527405 27.96405 2.434967 37.976257 12.375427l0 0c5.614197 -11.346344 16.637817 -18.969604 29.159058 -20.164734c12.521301 -1.1950989 24.768127 4.207123 32.394714 14.289673l0 0c10.142944 -12.027069 26.280518 -17.090973 41.430054 -13.000519c15.149475 4.090454 26.589844 16.600586 29.370789 32.117188l0 0c12.426819 3.415741 22.778076 12.09903 28.379333 23.806335c5.6012573 11.707306 5.903137 25.290222 0.8275757 37.23932l0 0c12.236755 16.04895 15.099182 37.43399 7.519226 56.17459c-7.580017 18.7406 -24.463745 32.02121 -44.350464 34.885742c-0.14013672 17.588715 -9.712585 33.727905 -25.027588 42.196808c-15.315063 8.468933 -33.9812 7.9451294 -48.80371 -1.3695068c-6.3135986 21.065552 -24.08435 36.56537 -45.63452 39.80298c-21.550232 3.2376099 -43.0166 -6.3673706 -55.12494 -24.665283c-14.842224 9.019104 -32.651733 11.6171875 -49.41095 7.208252c-16.759277 -4.4089355 -31.056519 -15.453552 -39.666687 -30.642426l0 0c-15.166931 1.7885437 -29.831238 -6.130066 -36.71512 -19.825806c-6.88385 -13.69574 -4.5218506 -30.253174 5.9137573 -41.454834l0 0c-13.529297 -8.024353 -20.43277 -23.947327 -17.110504 -39.4657c3.3222656 -15.518402 16.117401 -27.115692 31.713257 -28.744324z" fill-rule="evenodd"/><path fill="#000000" fill-opacity="0.0" d="m497.6394 446.50278l0 0c6.3845215 3.7867126 13.760132 5.5044556 21.136536 4.922577m9.661499 56.359436c3.1721802 -0.37405396 6.281433 -1.1661987 9.247681 -2.355957m79.82556 25.789124c-2.231079 -3.371521 -4.09906 -6.974365 -5.5720825 -10.747009m106.33539 -4.3912964l0 0c1.151062 -3.8405762 1.8968506 -7.7933044 2.2249146 -11.792358m71.60364 -29.033478c0.14923096 -18.725922 -10.405334 -35.87155 -27.130188 -44.072357m63.961 -46.985992c-2.7085571 6.376526 -6.843445 12.033051 -12.080444 16.526062m-17.123901 -77.573395l0 0c0.46148682 2.5750122 0.67510986 5.18869 0.6378174 7.80484m-71.43744 -26.920715l0 0c-2.5301514 3.0001526 -4.614685 6.352783 -6.1886597 9.953522m-55.365723 -4.0798035l0 0c-1.3483887 2.7250366 -2.3552246 5.6085815 -2.9973755 8.584198m-67.518555 2.347992l0 0c3.9367676 2.3234558 7.5788574 5.119995 10.846191 8.3281555m-95.16327 48.296906l0 0c0.40057373 2.9664001 1.0334473 5.8962708 1.8928223 8.762146" fill-rule="evenodd"/><path stroke="#ffffff" stroke-width="16.0" stroke-linejoin="round" stroke-linecap="butt" d="m512.542 377.46323l0 0c-2.906372 -21.52301 6.635742 -42.8295 24.57727 -54.878296c17.941528 -12.048828 41.135864 -12.726868 59.740845 -1.74646l0 0c6.590454 -12.514343 18.652954 -21.154663 32.538696 -23.307373c13.885803 -2.1527405 27.96405 2.434967 37.976257 12.375427l0 0c5.614197 -11.346344 16.637817 -18.969604 29.159058 -20.164734c12.521301 -1.1950989 24.768127 4.207123 32.394714 14.289673l0 0c10.142944 -12.027069 26.280518 -17.090973 41.430054 -13.000519c15.149475 4.090454 26.589844 16.600586 29.370789 32.117188l0 0c12.426819 3.415741 22.778076 12.09903 28.379333 23.806335c5.6012573 11.707306 5.903137 25.290222 0.8275757 37.23932l0 0c12.236755 16.04895 15.099182 37.43399 7.519226 56.17459c-7.580017 18.7406 -24.463745 32.02121 -44.350464 34.885742c-0.14013672 17.588715 -9.712585 33.727905 -25.027588 42.196808c-15.315063 8.468933 -33.9812 7.9451294 -48.80371 -1.3695068c-6.3135986 21.065552 -24.08435 36.56537 -45.63452 39.80298c-21.550232 3.2376099 -43.0166 -6.3673706 -55.12494 -24.665283c-14.842224 9.019104 -32.651733 11.6171875 -49.41095 7.208252c-16.759277 -4.4089355 -31.056519 -15.453552 -39.666687 -30.642426l0 0c-15.166931 1.7885437 -29.831238 -6.130066 -36.71512 -19.825806c-6.88385 -13.69574 -4.5218506 -30.253174 5.9137573 -41.454834l0 0c-13.529297 -8.024353 -20.43277 -23.947327 -17.110504 -39.4657c3.3222656 -15.518402 16.117401 -27.115692 31.713257 -28.744324z" fill-rule="evenodd"/><path stroke="#ffffff" stroke-width="16.0" stroke-linejoin="round" stroke-linecap="butt" d="m497.6394 446.50278l0 0c6.3845215 3.7867126 13.760132 5.5044556 21.136536 4.922577m9.661499 56.359436c3.1721802 -0.37405396 6.281433 -1.1661987 9.247681 -2.355957m79.82556 25.789124c-2.231079 -3.371521 -4.09906 -6.974365 -5.5720825 -10.747009m106.33539 -4.3912964l0 0c1.151062 -3.8405762 1.8968506 -7.7933044 2.2249146 -11.792358m71.60364 -29.033478c0.14923096 -18.725922 -10.405334 -35.87155 -27.130188 -44.072357m63.961 -46.985992c-2.7085571 6.376526 -6.843445 12.033051 -12.080444 16.526062m-17.123901 -77.573395l0 0c0.46148682 2.5750122 0.67510986 5.18869 0.6378174 7.80484m-71.43744 -26.920715l0 0c-2.5301514 3.0001526 -4.614685 6.352783 -6.1886597 9.953522m-55.365723 -4.0798035l0 0c-1.3483887 2.7250366 -2.3552246 5.6085815 -2.9973755 8.584198m-67.518555 2.347992l0 0c3.9367676 2.3234558 7.5788574 5.119995 10.846191 8.3281555m-95.16327 48.296906l0 0c0.40057373 2.9664001 1.0334473 5.8962708 1.8928223 8.762146" fill-rule="evenodd"/></g></svg>